# xmcd
# Track frame offsets:
# 150
# 13979
# 36411
# 52267
# 70598
# 82829
# 98337
# 115229
# 133870
# 150136
# 164869
# 175774
# 191377
# 208577
# 222542
# 237178
# 257778
# 271374
# 289379
# 311428
#
# Disc length: 4354 seconds
# Revision: 0
# Processed by: cddbd v1.4PL0 Copyright (c) Steve Scherf et al.
# Submitted via: VisiTrax 2.9.5.181 - For more info visit www.synapsa.com
#
DISCID=22110014
DTITLE=Jools Holland and various - Jools Holland big Band
DYEAR=1900
DGENRE=
TTITLE0=Seventh Son
TTITLE1=Horse to the water
TTITLE2=Will it go round in circles
TTITLE3=Valentine moon
TTITLE4=Return of the blues cowboy
TTITLE5=That hand that changed its mind
TTITLE6=Nobody but you
TTITLE7=I put on a spell on you
TTITLE8=Oranges and lemons again
TTITLE9=All that you are
TTITLE10=Mademoiselle will decide
TTITLE11=bacl o town blues
TTITLE12=town and country rythym and blues
TTITLE13=I wanna be around
TTITLE14=I'm ready
TTITLE15=Say Hello Wave goodbye
TTITLE16=T Bone shuffle
TTITLE17=It's so b;ue
TTITLE18=Outskirts of the town
TTITLE19=What would I do without you
EXTD=
EXTT0=
EXTT1=
EXTT2=
EXTT3=
EXTT4=
EXTT5=
EXTT6=
EXTT7=
EXTT8=
EXTT9=
EXTT10=
EXTT11=
EXTT12=
EXTT13=
EXTT14=
EXTT15=
EXTT16=
EXTT17=
EXTT18=
EXTT19=
PLAYORDER=
